<svg xmlns="http://www.w3.org/2000/svg" id="svg2" style="display:inline" width="1052" height="744.1" xmlns:inkscape="http://www.inkscape.org/namespaces/inkscape" inkscape:version="0.48.0 r9654" version="1.1" xmlns:xlink="http://www.w3.org/1999/xlink" inkscape:export-ydpi="300.1" inkscape:export-xdpi="300.1" inkscape:export-filename="C:\kriss\sidstuff\img\svg\wings\FullFeatherPhoenix.png" xmlns:sodipodi="http://sodipodi.sourceforge.net/DTD/sodipodi-0.dtd" sodipodi:docname="FullFeatherPhoenix.svg" xmlns:svg="http://www.w3.org/2000/svg" xmlns:rdf="http://www.w3.org/1999/02/22-rdf-syntax-ns#" xmlns:cc="http://creativecommons.org/ns#" xmlns:dc="http://purl.org/dc/elements/1.1/">
  <defs id="defs4">
    <g id="gFlame" transform="translate(350 128)">
      <path id="flameUp" style="fill:url(#RGFire2);fill-opacity:1" d="m 12 0 c 0 0 -24 0 -24 0 c 0 -6.63 5.37 -12 12 -12 c 6.63 0 12 5.37 12 12 Z" />
      <use id="flameDn" transform="scale(1 -3)" x="0" y="0" width="744.1" height="1052" xlink:href="#flameUp" />
    </g>
    <g id="gFeather" transform="matrix(0.6384 0 0 0.6384 -287.5 -78.59)">
      <path id="penna0001" style="fill:url(#RGFireSolid)" d="m 471.8 163.4 c 20.7 -4.5 36.1 5.3 37.4 23.5 c 0 1.1 -7.7 2.2 -7.6 3.3 c 0.1 1 7.9 2 8 3 c 10.2 136.8 53.1 313.8 31.3 332.6 c -23.2 11 -74.7 -176.6 -87.1 -277.2 c 1.6 -1.2 4.5 -3 4.5 -3 c 0 0 -3.3 -1.8 -5.3 -4.2 c -1.4 -16.2 -1.6 -32.4 0 -41 c 2.6 -14.3 4.7 -33.4 18.8 -37 l 0 0 Z" inkscape:connector-curvature="0" sodipodi:nodetypes="csssccccccc" />
      <path id="gambo" style="fill:#ffcc00;fill-opacity:0.5" d="m 464.2 129.2 c 0 0 53.1 338.2 75.6 397.5 c -20.7 -77.1 -58.2 -321.3 -72 -399.6 c -1.7 -9.2 -3.6 2.1 -3.6 2.1 Z" inkscape:connector-curvature="0" sodipodi:nodetypes="cccc" />
    </g>
    <linearGradient id="LGFireSolid">
      <stop id="stopfire10" style="stop-color:#ffFF88;stop-opacity:1" offset="0" />
      <stop id="stopfire20" style="stop-color:#FFFF88;stop-opacity:1" offset="0.4" />
      <stop id="stopfire30" style="stop-color:#ffff00;stop-opacity:1" offset="0.6" />
      <stop id="stopfire40" style="stop-color:#ff4400;stop-opacity:1;" offset="0.8" />
      <stop id="stopfire50" style="stop-color:#ff0000;stop-opacity:0;" offset="1" />
      <!-- stop id="stopfire50" offset="1" style="stop-color:#000000;stop-opacity:0;" /-->
    </linearGradient>
    <radialGradient id="RGFireSolid" gradientUnits="userSpaceOnUse" gradientTransform="matrix(-0.9829 0.1842 -2 -10.67 1495 3105)" cx="464.2" cy="287.3" r="37.77" fx="464.2" fy="287.3" xlink:href="#LGFireSolid" inkscape:collect="always" />
    <radialGradient id="RGFire2" gradientUnits="userSpaceOnUse" gradientTransform="scale(0.5)" cx="0" cy="0" r="24" fx="0" fy="0" xlink:href="#LGFireSolid" inkscape:collect="always" />
    <clipPath id="clipPath4683" clipPathUnits="userSpaceOnUse">
      <path id="path4685-7" style="fill:#ff0000;fill-opacity:1;stroke:none;display:inline" d="m 361.7 118.6 c -2.1 16.4 -3 30 -8.9 37.1 c -5.9 -10.2 -14.4 -21.7 -10.6 -30.9 c 3.1 -7.4 10.4 -6.4 19.5 -6.2 Z" inkscape:connector-curvature="0" sodipodi:nodetypes="cccc" />
    </clipPath>
    <clipPath id="clipPath4409" clipPathUnits="userSpaceOnUse">
      <path id="path4411" style="fill:#ffcc00;fill-opacity:1;stroke:none" d="m 338.5 123.7 c 0.2 8.5 0.9 7.9 1.6 18.5 c 1.4 6.6 3.9 10.9 10.2 18.5 c -1.1 -8.7 -2.4 -13.6 -2.6 -20.8 c -0.2 -7.3 4.6 -12.7 2.4 -22.5 c -3.2 -0.6 -9.1 2.4 -11.6 6.3 Z" inkscape:connector-curvature="0" sodipodi:nodetypes="ccczcc" />
    </clipPath>
    <clipPath id="clipPath4452" clipPathUnits="userSpaceOnUse">
      <path id="path4454-1" style="fill:#ff8800;fill-opacity:1;stroke:none" d="m 346.6 155.1 c -2.8 -5 -3.9 -6.2 -4.9 -11.3 c -0.4 -2.6 -0.6 -5.3 0 -9.5 c 1.8 3.9 2.1 5.6 3.5 7.2 c 1.1 1.3 2 0.8 2.9 1.9 c -1.5 4.9 -1 10.5 -1.5 11.7 Z" inkscape:connector-curvature="0" sodipodi:nodetypes="cccccc" />
    </clipPath>
  </defs>
  <sodipodi:namedview id="base" inkscape:window-maximized="1" inkscape:window-y="-4" inkscape:window-x="-4" inkscape:window-height="740" inkscape:window-width="1280" inkscape:guide-bbox="true" showguides="true" showgrid="false" inkscape:current-layer="layer1" inkscape:document-units="px" inkscape:cy="667.2" inkscape:cx="527.1" inkscape:zoom="0.597" inkscape:pageshadow="2" inkscape:pageopacity="1" borderopacity="1.0" bordercolor="#666666" pagecolor="#000000" />
  <metadata id="metadata7">
    <rdf:RDF>
      <cc:Work rdf:about="">
        <dc:format>image/svg+xml</dc:format>
        <dc:type rdf:resource="http://purl.org/dc/dcmitype/StillImage" />
        <dc:title />
      </cc:Work>
    </rdf:RDF>
  </metadata>
  <g id="layer3" style="display:none" sodipodi:insensitive="true" inkscape:label="raster" inkscape:groupmode="layer">
    <image id="image3409" transform="matrix(-0.7866 -0.6174 -0.8763 0.4818 0 0)" x="-921.8" y="-830.1" width="1541" height="1748" xlink:href="file:///C:/Documents%20and%20Settings/Kriss/Desktop/golden%20eagle_300_tcm9-139839_v1.jpg" />
  </g>
  <g id="layer1" style="display:inline" transform="translate(0 -308.3)" inkscape:label="Livello 1" inkscape:groupmode="layer">
    <use id="gGreatWing02" transform="matrix(-0.9997 0.0239 0.0239 0.9997 1069 -13.19)" x="0" y="0" width="744.1" height="1052" xlink:href="#gGreatWing" />
    <use id="RT01-6-3" style="display:inline" transform="matrix(1.004 -0.1565 -0.0877 1.958 540 532.9)" x="0" y="0" width="744.1" height="1052" xlink:href="#gFeather" />
    <use id="RT01-6" style="display:inline" transform="matrix(1.01 0.0264 -0.2873 1.416 529.2 570.6)" x="0" y="0" width="744.1" height="1052" xlink:href="#gFeather" />
    <use id="RT01-6-7-0" style="fill:#ff2a2a;display:inline" transform="matrix(0.9626 0.2686 -0.4632 0.7822 548.3 546.9)" x="0" y="0" width="744.1" height="1052" xlink:href="#gFeather" />
    <use id="RT01-6-7-0-4" style="fill:#ff2a2a;display:inline" transform="matrix(0.9208 0.3849 -0.4576 0.3714 547.2 539.2)" x="0" y="0" width="744.1" height="1052" xlink:href="#gFeather" />
    <use id="RT01-6-8" style="display:inline" transform="matrix(-1.004 0.1102 0.4037 1.387 574.5 561.2)" x="0" y="0" width="744.1" height="1052" xlink:href="#gFeather" />
    <use id="RT01-6-7" style="fill:#ff2a2a;display:inline" transform="matrix(-0.8737 0.3695 0.6029 0.9626 547.9 529.3)" x="0" y="0" width="744.1" height="1052" xlink:href="#gFeather" />
    <use id="RT01-6-7-0-4-6" style="fill:#ff2a2a;display:inline" transform="matrix(0.6455 -0.7611 0.2154 0.5483 535.2 553.6)" x="0" y="0" width="744.1" height="1052" xlink:href="#gFeather" />
    <use id="use3857-9-9-5-0" style="display:inline" transform="matrix(-0.3943 0.4647 0.0877 0.4749 568.5 407.6)" x="0" y="0" width="744.1" height="1052" xlink:href="#gFeather" />
    <use id="use3855-50-8-1-2-3" style="display:inline" transform="matrix(0.5321 0.0517 -0.175 0.2899 536 555.7)" x="0" y="0" width="744.1" height="1052" xlink:href="#gFeather" />
    <use id="use3855-50-8-1-2-3-7-1-4" style="display:inline" transform="matrix(0.4726 0.6316 -0.1591 0.2002 543.9 567.7)" x="0" y="0" width="744.1" height="1052" xlink:href="#gFeather" />
    <use id="use3855-50-8-1-2-3-8" style="display:inline" transform="matrix(0.5747 -0.0913 -0.112 0.4045 548.6 572.4)" x="0" y="0" width="744.1" height="1052" xlink:href="#gFeather" />
    <use id="use3867-8-6-0" style="display:inline" transform="matrix(0.4308 -0.2908 -0.0564 0.5619 536.7 489.9)" x="0" y="0" width="744.1" height="1052" xlink:href="#gFeather" />
    <use id="RT01-1" style="display:inline" transform="matrix(-0.47 -0.0006402 0.1297 0.5483 526.6 466.6)" x="0" y="0" width="744.1" height="1052" xlink:href="#gFeather" />
    <use id="RT03-1" style="display:inline" transform="matrix(0.5181 -0.0429 -0.0885 0.5845 510.8 408.4)" x="0" y="0" width="744.1" height="1052" xlink:href="#gFeather" />
    <use id="use3869-5" style="display:inline" transform="matrix(-0.3935 0.0482 0.0533 0.2773 562 540.1)" x="0" y="0" width="744.1" height="1052" xlink:href="#gFeather" />
    <use id="use3861-5-0-8-8-5" style="display:inline" transform="matrix(0.4802 0.0349 -0.0572 0.441 527.9 462.9)" x="0" y="0" width="744.1" height="1052" xlink:href="#gFeather" />
    <use id="RT04-1" style="display:inline" transform="matrix(0.5744 -0.0565 -0.0868 0.6312 519.4 395.3)" x="0" y="0" width="744.1" height="1052" xlink:href="#gFeather" />
    <use id="use3855-50-8-1-2-3-7-1" style="display:inline" transform="matrix(-0.5167 0.5958 0.1443 0.2111 561.6 560.6)" x="0" y="0" width="744.1" height="1052" xlink:href="#gFeather" />
    <use id="use3855-50-8-1-2-3-7" style="display:inline" transform="matrix(-0.3905 0.6854 0.1827 0.1788 558.8 543.2)" x="0" y="0" width="744.1" height="1052" xlink:href="#gFeather" />
    <use id="use3867-8-6" style="display:inline" transform="matrix(-0.4387 -0.2452 0.0721 0.5046 560.3 493.8)" x="0" y="0" width="744.1" height="1052" xlink:href="#gFeather" />
    <use id="use3861-5-0-8-8" style="display:inline" transform="matrix(-0.4726 0.0924 0.1098 0.4308 549 454.2)" x="0" y="0" width="744.1" height="1052" xlink:href="#gFeather" />
    <use id="RT05-7" style="display:inline" transform="matrix(0.4878 -0.0678 -0.0657 0.624 532.9 402.1)" x="0" y="0" width="744.1" height="1052" xlink:href="#gFeather" />
    <use id="use3863-43-4" style="display:inline" transform="matrix(-0.409 0.0325 0.0596 0.4338 572.6 474.2)" x="0" y="0" width="744.1" height="1052" xlink:href="#gFeather" />
    <use id="RT06-3" style="display:inline" transform="matrix(0.5124 -0.0762 -0.0584 0.6188 544.9 393)" x="0" y="0" width="744.1" height="1052" xlink:href="#gFeather" />
    <use id="use3869-3-1-12" style="display:inline" transform="matrix(-0.4624 -0.1265 0.121 0.4602 566.7 422.8)" x="0" y="0" width="744.1" height="1052" xlink:href="#gFeather" />
    <use id="use3861-5-0" style="display:inline" transform="matrix(-0.4015 0.0993 0.12 0.2962 551.7 388.9)" x="0" y="0" width="744.1" height="1052" xlink:href="#gFeather" />
    <use id="use3859-79-0" style="display:inline" transform="matrix(-0.3838 0.163 0.1701 0.2758 551.9 376.7)" x="0" y="0" width="744.1" height="1052" xlink:href="#gFeather" />
    <use id="use3865-1-8" style="display:inline" transform="matrix(0.3958 0.0751 -0.1055 0.2737 519.4 401.4)" x="0" y="0" width="744.1" height="1052" xlink:href="#gFeather" />
    <use id="use3861-5-0-8" style="display:inline" transform="matrix(-0.4082 0.0654 0.0948 0.3052 543.2 392.9)" x="0" y="0" width="744.1" height="1052" xlink:href="#gFeather" />
    <use id="use3863-90" style="display:inline" transform="matrix(0.482 0.0722 -0.0911 0.3159 527.8 388.3)" x="0" y="0" width="744.1" height="1052" xlink:href="#gFeather" />
    <use id="use3865-89-0-1-9" style="display:inline" transform="matrix(-0.3763 0.1603 0.0577 0.1485 549.3 392.4)" x="0" y="0" width="744.1" height="1052" xlink:href="#gFeather" />
    <use id="use3859-00-2-1-0" style="display:inline" transform="matrix(-0.2993 -0.0967 0.0328 0.1985 530.5 399.9)" x="0" y="0" width="744.1" height="1052" xlink:href="#gFeather" />
    <use id="use3855-50-8-4-7-2" style="display:inline" transform="matrix(-0.403 0.1917 0.0624 0.1217 541.9 389.7)" x="0" y="0" width="744.1" height="1052" xlink:href="#gFeather" />
    <use id="use3855-50-8-4-7" style="display:inline" transform="matrix(-0.3481 0.2475 0.0887 0.0923 550.1 385.3)" x="0" y="0" width="744.1" height="1052" xlink:href="#gFeather" />
    <use id="use3865-38" style="display:inline" transform="matrix(0.2932 0.2959 -0.1359 0.1095 527.8 391.5)" x="0" y="0" width="744.1" height="1052" xlink:href="#gFeather" />
    <use id="use3857-9-9-0-7" style="display:inline" transform="matrix(0.3898 0.1483 -0.0728 0.1354 531 384.7)" x="0" y="0" width="744.1" height="1052" xlink:href="#gFeather" />
    <use id="use3855-50-8-4-7-8" style="display:inline" transform="matrix(-0.2126 0.3701 0.1192 0.0468 545.8 380.8)" x="0" y="0" width="744.1" height="1052" xlink:href="#gFeather" />
    <use id="use3855-50-8-4-7-7-9-79-1" style="display:inline" transform="matrix(0.0323 0.3812 0.1085 -0.0112 531.3 387.5)" x="0" y="0" width="744.1" height="1052" xlink:href="#gFeather" />
    <g id="gGreatWing" transform="matrix(0.3667 -0.1067 0.0859 0.4553 470.7 312.6)">
      <use id="RS00" style="display:inline" transform="matrix(1.213 0.28 -0.3551 1.144 481.2 375.5)" x="0" y="0" width="744.1" height="1052" xlink:href="#gFeather" />
      <use id="RS00-1" style="display:inline" transform="matrix(1.095 0.0161 -0.056 1.178 691.5 331.3)" x="0" y="0" width="744.1" height="1052" xlink:href="#gFeather" />
      <g id="gWingB" transform="translate(10.84 0.2511)">
        <use id="RS01" transform="matrix(1.234 0.1908 -0.3164 1.133 492.6 367.3)" x="0" y="0" width="744.1" height="1052" xlink:href="#gFeather" />
        <use id="RS02" transform="matrix(1.229 0.1321 -0.2398 1.137 517.8 356.1)" x="0" y="0" width="744.1" height="1052" xlink:href="#gFeather" />
        <use id="RS03" transform="matrix(1.25 0.0902 -0.1883 1.161 547.5 359.5)" x="0" y="0" width="744.1" height="1052" xlink:href="#gFeather" />
        <use id="RS04" transform="matrix(1.23 0.0883 -0.1907 1.135 593.6 373.7)" x="0" y="0" width="744.1" height="1052" xlink:href="#gFeather" />
        <use id="RS05" transform="matrix(1.2 0.0249 -0.1071 1.118 629.9 361.9)" x="0" y="0" width="744.1" height="1052" xlink:href="#gFeather" />
        <use id="RS06" transform="matrix(1.186 -0.0137 -0.059 1.11 656.2 344.9)" x="0" y="0" width="744.1" height="1052" xlink:href="#gFeather" />
        <use id="use3857-8" transform="matrix(-1.098 0.1475 0.2501 0.6305 631.4 361.9)" x="0" y="0" width="744.1" height="1052" xlink:href="#gFeather" />
        <use id="use3861-2" transform="matrix(-1.084 0.1265 0.2074 0.6407 592 369.4)" x="0" y="0" width="744.1" height="1052" xlink:href="#gFeather" />
        <use id="use3863-7" transform="matrix(-1.076 0.1174 0.1865 0.6548 558.7 359.1)" x="0" y="0" width="744.1" height="1052" xlink:href="#gFeather" />
        <use id="use3865-7" transform="matrix(-1.068 0.1064 0.1659 0.6594 525.5 357)" x="0" y="0" width="744.1" height="1052" xlink:href="#gFeather" />
        <use id="use3867-9" transform="matrix(0.9908 0.4372 -0.3082 0.5788 492.3 355.6)" x="0" y="0" width="744.1" height="1052" xlink:href="#gFeather" />
        <use id="use3855-3" transform="matrix(-1.088 0.1761 0.304 0.6347 663.7 353.2)" x="0" y="0" width="744.1" height="1052" xlink:href="#gFeather" />
        <use id="use3859-5" transform="matrix(-1.163 -0.0132 0.2214 0.5172 613.9 338)" x="0" y="0" width="744.1" height="1052" xlink:href="#gFeather" />
        <use id="use3861-0" transform="matrix(-1.026 0.0083 0.1633 0.5047 578.3 337.4)" x="0" y="0" width="744.1" height="1052" xlink:href="#gFeather" />
        <use id="use3863-2" transform="matrix(-1.016 0.0117 0.1523 0.4916 546.2 341.6)" x="0" y="0" width="744.1" height="1052" xlink:href="#gFeather" />
        <use id="use3865-86" transform="matrix(-0.9983 0.0608 0.1706 0.46 507.8 352)" x="0" y="0" width="744.1" height="1052" xlink:href="#gFeather" />
        <use id="use3855-50-8" transform="matrix(-0.9573 -0.3962 0.0912 0.34 539.7 356)" x="0" y="0" width="744.1" height="1052" xlink:href="#gFeather" />
        <use id="use3857-9-9" transform="matrix(-0.9925 -0.2727 0.1087 0.352 574 347.3)" x="0" y="0" width="744.1" height="1052" xlink:href="#gFeather" />
        <use id="use3859-00-2" transform="matrix(-0.9894 -0.2552 0.0995 0.33 612 347.3)" x="0" y="0" width="744.1" height="1052" xlink:href="#gFeather" />
        <use id="use3855-50-8-1-1" style="display:inline" transform="matrix(1.046 0.0043 -0.2453 0.345 649.5 363.2)" x="0" y="0" width="744.1" height="1052" xlink:href="#gFeather" />
        <use id="use3861-6-8" transform="matrix(-1.017 -0.0365 0.1417 0.2847 646.3 344.5)" x="0" y="0" width="744.1" height="1052" xlink:href="#gFeather" />
        <use id="use3863-13-7" transform="matrix(0.9682 0.2997 -0.1952 0.1989 660.6 334.9)" x="0" y="0" width="744.1" height="1052" xlink:href="#gFeather" />
        <use id="use3855-50-8-1" transform="matrix(1.035 0.0499 -0.2274 0.2686 484.6 354)" x="0" y="0" width="744.1" height="1052" xlink:href="#gFeather" />
        <use id="use4322" style="display:inline" transform="matrix(-0.0102 -1.863 6.17 -0.3822 -276.3 1054)" x="0" y="0" width="1" height="1" xlink:href="#gFlame" />
      </g>
      <g id="gWingC" transform="matrix(0.9974 0 0 0.9974 11.5 1.094)">
        <use id="use3869-2" transform="matrix(1.174 0.0156 -0.0845 1.096 718.6 356.4)" x="0" y="0" width="744.1" height="1052" xlink:href="#gFeather" />
        <use id="use64" transform="matrix(1.527 0.1544 -0.0804 1.043 736.7 340.9)" x="0" y="0" width="744.1" height="1052" xlink:href="#gFeather" />
        <use id="RP01" transform="matrix(1.334 -0.0887 0.0544 1.083 762 348.5)" x="0" y="0" width="744.1" height="1052" xlink:href="#gFeather" />
        <use id="RP02" transform="matrix(1.205 -0.3205 0.3255 1.139 754.6 341.2)" x="0" y="0" width="744.1" height="1052" xlink:href="#gFeather" />
        <use id="RP03" transform="matrix(1.136 -0.3882 0.3882 1.135 786.1 341.8)" x="0" y="0" width="744.1" height="1052" xlink:href="#gFeather" />
        <use id="RP04" transform="matrix(1.101 -0.4661 0.4588 1.126 817.4 344)" x="0" y="0" width="744.1" height="1052" xlink:href="#gFeather" />
        <use id="RP05" transform="matrix(1.097 -0.522 0.5113 1.119 848.6 346.9)" x="0" y="0" width="744.1" height="1052" xlink:href="#gFeather" />
        <use id="RP06" transform="matrix(1.028 -0.6262 0.5934 1.085 880.8 351.9)" x="0" y="0" width="744.1" height="1052" xlink:href="#gFeather" />
        <use id="RP07" transform="matrix(0.9714 -0.7282 0.6802 1.04 913.2 357.9)" x="0" y="0" width="744.1" height="1052" xlink:href="#gFeather" />
        <use id="RP08" transform="matrix(0.9205 -0.8272 0.7724 0.9858 946.1 365)" x="0" y="0" width="744.1" height="1052" xlink:href="#gFeather" />
        <use id="RP09" transform="matrix(0.9738 -0.9222 0.9738 0.9222 969.1 377.1)" x="0" y="0" width="744.1" height="1052" xlink:href="#gFeather" />
        <use id="RP10" transform="matrix(0.9306 -1.052 1.225 0.7994 1013 390.7)" x="0" y="0" width="744.1" height="1052" xlink:href="#gFeather" />
        <use id="RP11" transform="matrix(0.7523 -0.8577 1.591 0.5629 1019 392.5)" x="0" y="0" width="744.1" height="1052" xlink:href="#gFeather" />
        <use id="use3855-6" transform="matrix(0.9972 -0.1349 -0.1032 0.5625 695.8 356)" x="0" y="0" width="744.1" height="1052" xlink:href="#gFeather" />
        <use id="use3857-61" transform="matrix(0.9962 -0.1186 -0.1012 0.5773 736.6 362.3)" x="0" y="0" width="744.1" height="1052" xlink:href="#gFeather" />
        <use id="use3859-8" transform="matrix(1.012 -0.0197 -0.1728 0.5625 777.9 357.3)" x="0" y="0" width="744.1" height="1052" xlink:href="#gFeather" />
        <use id="use3861-4-1" transform="matrix(0.9788 -0.0982 -0.0712 0.5199 704.5 336.5)" x="0" y="0" width="1" height="1" xlink:href="#gFeather" />
        <use id="use3861-4" transform="matrix(1.005 -0.0299 -0.1535 0.5704 807.3 357)" x="0" y="0" width="744.1" height="1052" xlink:href="#gFeather" />
        <use id="use3863-9-98" transform="matrix(0.9784 -0.0779 -0.0794 0.5088 737.2 330.7)" x="0" y="0" width="1" height="1" xlink:href="#gFeather" />
        <use id="use3863-9" transform="matrix(0.9968 -0.0389 -0.1346 0.556 836.8 356.7)" x="0" y="0" width="744.1" height="1052" xlink:href="#gFeather" />
        <use id="use3865-6-9" transform="matrix(0.9763 -0.0519 -0.086 0.4976 773.5 337.6)" x="0" y="0" width="1" height="1" xlink:href="#gFeather" />
        <use id="use3865-6" transform="matrix(0.9886 -0.0489 -0.116 0.5592 866.4 356.4)" x="0" y="0" width="744.1" height="1052" xlink:href="#gFeather" />
        <use id="use3867-37" transform="matrix(0.9801 -0.0582 -0.0976 0.5535 896 356)" x="0" y="0" width="744.1" height="1052" xlink:href="#gFeather" />
        <use id="use3869-8" transform="matrix(0.9712 -0.065 -0.0797 0.5295 925.7 355.7)" x="0" y="0" width="744.1" height="1052" xlink:href="#gFeather" />
        <use id="use3869-8-2" transform="matrix(0.2757 -0.9331 0.4239 0.2385 1066 397.5)" x="0" y="0" width="1" height="1" xlink:href="#gFeather" />
        <use id="use3869-8-4" transform="matrix(0.4587 -0.8581 0.367 0.3193 1063 409.3)" x="0" y="0" width="1" height="1" xlink:href="#gFeather" />
        <use id="use3867-37-3" transform="matrix(0.6972 -0.6908 0.2509 0.4276 1034 394.9)" x="0" y="0" width="1" height="1" xlink:href="#gFeather" />
        <use id="use3865-3-7" transform="matrix(0.9294 -0.3322 -0.02 0.2905 1059 379.4)" x="0" y="0" width="1" height="1" xlink:href="#gFeather" />
        <use id="use3867-6" transform="matrix(-0.1183 0.9191 0.2811 -0.0653 1055 362.3)" x="0" y="0" width="744.1" height="1052" xlink:href="#gFeather" />
        <use id="use3865-6-1" transform="matrix(0.8992 -0.413 0.0783 0.4994 1011 366.3)" x="0" y="0" width="1" height="1" xlink:href="#gFeather" />
        <use id="use3865-3-1" transform="matrix(0.9774 -0.1584 -0.0783 0.3231 1039 365.1)" x="0" y="0" width="1" height="1" xlink:href="#gFeather" />
        <use id="use3865-3" transform="matrix(0.8454 -0.1067 -0.0656 0.2328 1043 352.8)" x="0" y="0" width="744.1" height="1052" xlink:href="#gFeather" />
        <use id="use3863-9-9" transform="matrix(0.9612 -0.2861 -0.0149 0.5543 989.1 355.7)" x="0" y="0" width="1" height="1" xlink:href="#gFeather" />
        <use id="use3869-8-3" transform="matrix(0.9649 -0.1201 -0.0504 0.3962 1003 350.2)" x="0" y="0" width="1" height="1" xlink:href="#gFeather" />
        <use id="use3863-6" transform="matrix(0.8516 -0.0853 -0.0929 0.2431 1016 350.2)" x="0" y="0" width="744.1" height="1052" xlink:href="#gFeather" />
        <use id="use3861-4-8" transform="matrix(0.982 -0.2385 -0.0559 0.58 957.4 349.7)" x="0" y="0" width="1" height="1" xlink:href="#gFeather" />
        <use id="use3867-37-5" transform="matrix(0.9801 -0.0418 -0.0976 0.3979 977.1 353)" x="0" y="0" width="1" height="1" xlink:href="#gFeather" />
        <use id="use3865-6-142" transform="matrix(0.9886 -0.0364 -0.116 0.4166 942.9 348.1)" x="0" y="0" width="1" height="1" xlink:href="#gFeather" />
        <use id="use3861-07" transform="matrix(0.9792 -0.2222 -0.0925 0.2911 979.2 349.5)" x="0" y="0" width="744.1" height="1052" xlink:href="#gFeather" />
        <use id="use3859-4" transform="matrix(0.972 -0.2818 -0.0931 0.3105 944.4 346.9)" x="0" y="0" width="744.1" height="1052" xlink:href="#gFeather" />
        <use id="use3863-9-5" transform="matrix(0.9968 -0.0316 -0.1346 0.452 912.9 345.2)" x="0" y="0" width="1" height="1" xlink:href="#gFeather" />
        <use id="use3857-98" transform="matrix(0.9761 -0.2948 -0.101 0.3376 914.8 343.6)" x="0" y="0" width="744.1" height="1052" xlink:href="#gFeather" />
        <use id="use3867-37-89" transform="matrix(0.9721 -0.0347 -0.0866 0.4881 809.7 348.6)" x="0" y="0" width="1" height="1" xlink:href="#gFeather" />
        <use id="use3869-8-1" transform="matrix(0.9671 0.0666 -0.1283 0.4683 845.9 342.4)" x="0" y="0" width="1" height="1" xlink:href="#gFeather" />
        <use id="use3861-4-3" transform="matrix(0.9979 -0.0637 -0.1259 0.4738 877.5 343.5)" x="0" y="0" width="1" height="1" xlink:href="#gFeather" />
        <use id="use3855-50" transform="matrix(0.982 -0.2971 -0.1231 0.3262 886.4 343.2)" x="0" y="0" width="744.1" height="1052" xlink:href="#gFeather" />
        <use id="use3857-9" transform="matrix(1.004 -0.1733 -0.1428 0.312 854.3 341.7)" x="0" y="0" width="744.1" height="1052" xlink:href="#gFeather" />
        <use id="use3859-00" transform="matrix(1.011 -0.0541 -0.1608 0.2762 822.5 338.6)" x="0" y="0" width="744.1" height="1052" xlink:href="#gFeather" />
        <use id="use3861-6" transform="matrix(1.004 -0.0531 -0.1432 0.2651 784.8 336.2)" x="0" y="0" width="744.1" height="1052" xlink:href="#gFeather" />
        <use id="use3863-13" transform="matrix(0.9618 0.2624 -0.1991 0.2018 759.6 333.5)" x="0" y="0" width="744.1" height="1052" xlink:href="#gFeather" />
        <use id="use3865-89" transform="matrix(0.9869 0.0616 -0.1362 0.2346 719.1 336.3)" x="0" y="0" width="744.1" height="1052" xlink:href="#gFeather" />
        <use id="use3865-89-0" transform="matrix(0.9829 0.212 -0.1478 0.2363 687.2 330.3)" x="0" y="0" width="744.1" height="1052" xlink:href="#gFeather" />
        <use id="use4322-6" style="display:inline" transform="matrix(-5.132 1.186 10.58 0.7718 1238 -170.8)" x="0" y="0" width="1" height="1" xlink:href="#gFlame" />
      </g>
      <g id="gWingA" transform="translate(0.0018 -0.0221)">
        <use id="RT08" transform="matrix(1.233 -0.0111 -0.3306 1.185 444.3 369.5)" x="0" y="0" width="744.1" height="1052" xlink:href="#gFeather" />
        <use id="use3869-31" transform="matrix(-1.051 0.0709 0.1259 0.5641 458.8 360.3)" x="0" y="0" width="744.1" height="1052" xlink:href="#gFeather" />
        <use id="use3869-3-1-1" transform="matrix(1.018 0.1392 -0.2063 0.6703 456.3 353.8)" x="0" y="0" width="744.1" height="1052" xlink:href="#gFeather" />
        <use id="use3869-24" transform="matrix(-0.9918 -0.0187 0.0877 0.3518 455.4 339.8)" x="0" y="0" width="744.1" height="1052" xlink:href="#gFeather" />
        <use id="RT01" transform="matrix(1.25 0.2571 -0.5852 1.158 207.5 317.5)" x="0" y="0" width="744.1" height="1052" xlink:href="#gFeather" />
        <use id="RT02" transform="matrix(1.252 0.2192 -0.5324 1.231 235.9 317.9)" x="0" y="0" width="744.1" height="1052" xlink:href="#gFeather" />
        <use id="RT03" transform="matrix(1.248 0.1946 -0.5055 1.215 267.7 322.5)" x="0" y="0" width="744.1" height="1052" xlink:href="#gFeather" />
        <use id="RT04" transform="matrix(1.244 0.1727 -0.4784 1.214 302.8 330.6)" x="0" y="0" width="744.1" height="1052" xlink:href="#gFeather" />
        <use id="RT05" transform="matrix(1.24 0.1491 -0.4518 1.197 338.3 340.9)" x="0" y="0" width="744.1" height="1052" xlink:href="#gFeather" />
        <use id="RT06" transform="matrix(1.234 0.1286 -0.4257 1.203 373.5 345)" x="0" y="0" width="744.1" height="1052" xlink:href="#gFeather" />
        <use id="RT07" transform="matrix(1.228 0.1051 -0.4 1.178 413.1 358.4)" x="0" y="0" width="744.1" height="1052" xlink:href="#gFeather" />
        <use id="use3855-9" transform="matrix(1.033 0.231 -0.2754 0.6266 425.2 377.8)" x="0" y="0" width="744.1" height="1052" xlink:href="#gFeather" />
        <use id="use3857-2" transform="matrix(-1.104 -0.14 0.0883 0.7121 405 365.4)" x="0" y="0" width="744.1" height="1052" xlink:href="#gFeather" />
        <use id="use3861-5" transform="matrix(-1.087 -0.1063 0.1008 0.6929 361.3 372.9)" x="0" y="0" width="744.1" height="1052" xlink:href="#gFeather" />
        <use id="use3863-43" transform="matrix(-1.078 -0.073 0.122 0.683 319.8 365.6)" x="0" y="0" width="744.1" height="1052" xlink:href="#gFeather" />
        <use id="use3865-1" transform="matrix(-1.069 -0.0589 0.1253 0.6736 281.7 354.9)" x="0" y="0" width="744.1" height="1052" xlink:href="#gFeather" />
        <use id="use3867-23" transform="matrix(-1.059 -0.07 0.1055 0.6655 249.9 355)" x="0" y="0" width="744.1" height="1052" xlink:href="#gFeather" />
        <use id="use3869-3" transform="matrix(-1.05 -0.0806 0.0861 0.6571 225.4 338)" x="0" y="0" width="744.1" height="1052" xlink:href="#gFeather" />
        <use id="use3869-3-1" transform="matrix(-0.997 -0.2583 -0.048 0.7014 216.2 329.1)" x="0" y="0" width="744.1" height="1052" xlink:href="#gFeather" />
        <use id="use3855" transform="matrix(-1.102 -0.1067 0.1696 0.5391 460.4 340)" x="0" y="0" width="744.1" height="1052" xlink:href="#gFeather" />
        <use id="use3857" transform="matrix(-1.094 -0.1149 0.1488 0.5318 425.6 346.6)" x="0" y="0" width="744.1" height="1052" xlink:href="#gFeather" />
        <use id="use3859" transform="matrix(-1.085 -0.1229 0.1284 0.5243 389.6 337.3)" x="0" y="0" width="744.1" height="1052" xlink:href="#gFeather" />
        <use id="use3861" transform="matrix(-1.076 -0.1307 0.1083 0.5168 359.1 329.7)" x="0" y="0" width="744.1" height="1052" xlink:href="#gFeather" />
        <use id="use3863" transform="matrix(-1.15 -0.1577 0.1042 0.5128 322.7 334.1)" x="0" y="0" width="744.1" height="1052" xlink:href="#gFeather" />
        <use id="use3865" transform="matrix(-1.228 -0.1856 0.0985 0.5082 291.1 326.4)" x="0" y="0" width="744.1" height="1052" xlink:href="#gFeather" />
        <use id="use3867" transform="matrix(-1.047 -0.1527 0.0502 0.4935 256.8 326.7)" x="0" y="0" width="744.1" height="1052" xlink:href="#gFeather" />
        <use id="use3869" transform="matrix(-1.036 -0.1596 0.0317 0.4856 229.6 327.7)" x="0" y="0" width="744.1" height="1052" xlink:href="#gFeather" />
        <use id="use3855-2" transform="matrix(-1.046 -0.147 0.1971 0.37 475.3 345.7)" x="0" y="0" width="744.1" height="1052" xlink:href="#gFeather" />
        <use id="use3855-50-8-1-7" transform="matrix(-1.003 -0.2588 0.1292 0.3641 448.1 349.6)" x="0" y="0" width="744.1" height="1052" xlink:href="#gFeather" />
        <use id="use3855-50-8-4" transform="matrix(-1.068 0.2016 0.1507 0.2591 414.5 350.1)" x="0" y="0" width="744.1" height="1052" xlink:href="#gFeather" />
        <use id="use3857-9-9-0" transform="matrix(-1.055 0.0843 0.1542 0.2869 370.9 346.1)" x="0" y="0" width="744.1" height="1052" xlink:href="#gFeather" />
        <use id="use3857-9-9-5" transform="matrix(-1.079 0.0149 0.1661 0.3125 331.1 338.4)" x="0" y="0" width="744.1" height="1052" xlink:href="#gFeather" />
        <use id="use3855-50-8-45" transform="matrix(-0.9969 -0.2818 0.1302 0.3271 296.3 341.7)" x="0" y="0" width="744.1" height="1052" xlink:href="#gFeather" />
        <use id="use3865-89-0-1" transform="matrix(-0.9972 0.0468 0.134 0.2389 227.7 338)" x="0" y="0" width="744.1" height="1052" xlink:href="#gFeather" />
        <use id="use3855-50-8-1-2" transform="matrix(-0.9706 -0.3623 0.1031 0.3366 261 334.1)" x="0" y="0" width="744.1" height="1052" xlink:href="#gFeather" />
        <use id="use3859-00-2-1" transform="matrix(-0.7266 -0.3826 -0.0121 0.4331 207.8 327.5)" x="0" y="0" width="744.1" height="1052" xlink:href="#gFeather" />
        <use id="use4322-0" style="display:inline" transform="matrix(-3.117 2.717 7.817 1.089 347.7 -758.4)" x="0" y="0" width="1" height="1" xlink:href="#gFlame" />
      </g>
    </g>
    <use id="use3855-50-8-4-7-7-9-79" style="display:inline" transform="matrix(0.1824 0.336 0.095 -0.0539 529.4 381.6)" x="0" y="0" width="744.1" height="1052" xlink:href="#gFeather" />
    <use id="use3855-50-8-4-7-7-7" style="display:inline" transform="matrix(0.1013 0.315 0.0749 -0.0407 532.6 386.2)" x="0" y="0" width="744.1" height="1052" xlink:href="#gFeather" />
    <g id="g9603" transform="matrix(0.3307 -0.0294 0.0294 0.3307 502.5 290)">
      <path id="path7893" style="fill:#ff4400;fill-opacity:1;stroke:none" transform="matrix(2.655 0 0 2.655 -1350 123.5)" d="m 531.6 53.23 c -2.7 -11.03 27.1 -5.87 33.1 -16.66 c 2.6 -4.73 -4.8 -11.96 -1.4 -16.19 c 1.5 -1.84 5.3 -2.58 7 -0.94 c 4.3 4.22 1.7 13.2 -1.9 18.07 c -7.9 10.73 -30.8 6.85 -36.8 15.72 Z" inkscape:connector-curvature="0" sodipodi:nodetypes="cccccc" />
      <use id="use5207-1-3-8" style="display:inline" transform="matrix(-0.7412 -1.772 0.5131 -0.7898 346.8 920.8)" x="0" y="0" width="1" height="1" xlink:href="#gFlame" />
    </g>
    <use id="use3855-50-8-4-7-7-9-3" style="display:inline" transform="matrix(0.4915 0.2769 0.0805 -0.09 509.4 384.3)" x="0" y="0" width="744.1" height="1052" xlink:href="#gFeather" />
    <use id="use3855-50-8-4-7-7-9" style="display:inline" transform="matrix(0.086 0.3325 0.0992 -0.0323 515.7 386)" x="0" y="0" width="744.1" height="1052" xlink:href="#gFeather" />
    <use id="use9606" transform="matrix(0.8448 -0.2661 0.2739 0.7897 -20.68 220)" x="0" y="0" width="1052" height="744.1" xlink:href="#g9603" />
    <use id="use3855-50-8-4-7-7-9-7" style="display:inline" transform="matrix(0.162 0.2724 0.1314 -0.0883 507.8 379)" x="0" y="0" width="744.1" height="1052" xlink:href="#gFeather" />
    <path id="path4685" style="fill:#ff3300;fill-opacity:1;stroke:none;display:inline" d="m 516.6 386.3 c 5.8 -3.1 10.2 -6.1 14.3 -6.1 c -1.1 3.8 -1.8 8.7 -5.9 9.8 c -3.3 0.9 -5.3 -1.2 -8.4 -3.7 Z" inkscape:connector-curvature="0" sodipodi:nodetypes="cccc" />
    <g id="g5199" transform="matrix(0.3766 0 0 0.3766 508.3 261.8)" />
    <use id="use9608" style="fill:#ff4400" transform="matrix(0.9317 0.3632 -0.3632 0.9317 172.4 -167)" x="0" y="0" width="1052" height="744.1" xlink:href="#g9603" />
    <use id="use3855-50-8-4-7-7-9-2" style="display:inline" transform="matrix(0.4028 0.176 0.0052 -0.1161 508.7 385.6)" x="0" y="0" width="744.1" height="1052" xlink:href="#gFeather" />
    <use id="use3855-50-8-4-7-7-9-2-9" style="display:inline" transform="matrix(0.3556 0.007 -0.0655 -0.0837 510.3 390.1)" x="0" y="0" width="744.1" height="1052" xlink:href="#gFeather" />
    <use id="use3855-50-8-4-7-7-9-2-9-1" style="display:inline" transform="matrix(0.2722 -0.2187 -0.1028 -0.0309 516.9 402.2)" x="0" y="0" width="744.1" height="1052" xlink:href="#gFeather" />
    <use id="use3857-9-9-0-7-8-7" style="display:inline" transform="matrix(0.2637 -0.3721 0.0716 0.1276 507 394.4)" x="0" y="0" width="744.1" height="1052" xlink:href="#gFeather" />
    <use id="use3857-9-9-0-7-8" style="display:inline" transform="matrix(0.3354 -0.1226 -3.249e-005 0.1095 506.6 389.6)" x="0" y="0" width="744.1" height="1052" xlink:href="#gFeather" />
    <use id="use5207-1-3-5" style="display:inline" clip-path="url(&quot;#clipPath4452&quot;)" transform="matrix(-0.5511 -1.985 1.093 -0.4931 540.9 1154)" x="0" y="0" width="1" height="1" xlink:href="#gFlame" />
    <path id="path3961-1" style="fill:#ff4400;fill-opacity:1;stroke:none;display:inline" d="m 514.5 390.8 c -3.7 8.2 -4.9 11.3 -7.7 13.4 c -2.6 2.2 -6.2 4.1 -6.2 4.1 c 0 0 5.7 -6.8 6.6 -10.3 c 0.7 -3 0.5 -3.6 0.5 -5.7 c 1.7 -1 5.2 -1.8 6.8 -1.5 Z" inkscape:connector-curvature="0" sodipodi:nodetypes="cccccc" />
    <use id="use5207-1-3-2" style="display:inline" clip-path="url(&quot;#clipPath4409&quot;)" transform="matrix(0.5389 1.101 -0.6242 0.2528 404.2 -24.64)" x="0" y="0" width="1" height="1" xlink:href="#gFlame" />
    <use id="use5207-1-3-9" style="display:inline" clip-path="url(&quot;#clipPath4683&quot;)" transform="matrix(-0.2909 -0.2425 0.2801 -0.1988 589.2 497.4)" x="0" y="0" width="1" height="1" xlink:href="#gFlame" />
  </g>
</svg>